<mxfile host="app.diagrams.net" agent="Mozilla/5.0 (Windows NT 10.0; Win64; x64) AppleWebKit/537.36 (KHTML, like Gecko) Chrome/134.0.0.0 Safari/537.36 Edg/134.0.0.0" version="26.2.3">
  <diagram name="Page-1" id="8WTJgYDm386f74_ie5BW">
    <mxGraphModel dx="2087" dy="1789" grid="1" gridSize="10" guides="1" tooltips="1" connect="1" arrows="1" fold="1" page="1" pageScale="1" pageWidth="850" pageHeight="1100" math="0" shadow="0">
      <root>
        <mxCell id="0" />
        <mxCell id="1" parent="0" />
        <mxCell id="6qjB4eZnKQnl-ds_ViV4-54" style="edgeStyle=orthogonalEdgeStyle;rounded=0;orthogonalLoop=1;jettySize=auto;html=1;endArrow=none;startFill=0;" edge="1" parent="1" source="6qjB4eZnKQnl-ds_ViV4-3" target="6qjB4eZnKQnl-ds_ViV4-50">
          <mxGeometry relative="1" as="geometry" />
        </mxCell>
        <mxCell id="6qjB4eZnKQnl-ds_ViV4-3" value="Produto" style="whiteSpace=wrap;html=1;align=center;" vertex="1" parent="1">
          <mxGeometry x="-109" y="190" width="100" height="40" as="geometry" />
        </mxCell>
        <mxCell id="6qjB4eZnKQnl-ds_ViV4-51" style="edgeStyle=orthogonalEdgeStyle;rounded=0;orthogonalLoop=1;jettySize=auto;html=1;entryX=1;entryY=0.5;entryDx=0;entryDy=0;endArrow=none;startFill=0;" edge="1" parent="1" source="6qjB4eZnKQnl-ds_ViV4-4" target="6qjB4eZnKQnl-ds_ViV4-50">
          <mxGeometry relative="1" as="geometry" />
        </mxCell>
        <mxCell id="6qjB4eZnKQnl-ds_ViV4-4" value="Insumo" style="whiteSpace=wrap;html=1;align=center;" vertex="1" parent="1">
          <mxGeometry x="20" y="326" width="100" height="40" as="geometry" />
        </mxCell>
        <mxCell id="6qjB4eZnKQnl-ds_ViV4-5" value="Estoque" style="whiteSpace=wrap;html=1;align=center;" vertex="1" parent="1">
          <mxGeometry x="300" y="326" width="100" height="40" as="geometry" />
        </mxCell>
        <mxCell id="6qjB4eZnKQnl-ds_ViV4-62" style="edgeStyle=orthogonalEdgeStyle;rounded=0;orthogonalLoop=1;jettySize=auto;html=1;entryX=1;entryY=0.5;entryDx=0;entryDy=0;endArrow=none;startFill=0;" edge="1" parent="1" source="6qjB4eZnKQnl-ds_ViV4-6" target="6qjB4eZnKQnl-ds_ViV4-61">
          <mxGeometry relative="1" as="geometry" />
        </mxCell>
        <mxCell id="6qjB4eZnKQnl-ds_ViV4-6" value="Venda" style="whiteSpace=wrap;html=1;align=center;" vertex="1" parent="1">
          <mxGeometry x="-30" y="-110" width="100" height="40" as="geometry" />
        </mxCell>
        <mxCell id="6qjB4eZnKQnl-ds_ViV4-7" value="Funcionário" style="whiteSpace=wrap;html=1;align=center;" vertex="1" parent="1">
          <mxGeometry x="160" y="-60" width="100" height="40" as="geometry" />
        </mxCell>
        <mxCell id="6qjB4eZnKQnl-ds_ViV4-9" value="Funcionário" style="whiteSpace=wrap;html=1;align=center;" vertex="1" parent="1">
          <mxGeometry x="250" y="-660" width="100" height="40" as="geometry" />
        </mxCell>
        <mxCell id="6qjB4eZnKQnl-ds_ViV4-78" style="edgeStyle=orthogonalEdgeStyle;rounded=0;orthogonalLoop=1;jettySize=auto;html=1;exitX=0.5;exitY=0;exitDx=0;exitDy=0;entryX=0.5;entryY=1;entryDx=0;entryDy=0;endArrow=none;startFill=0;" edge="1" parent="1" source="6qjB4eZnKQnl-ds_ViV4-10" target="6qjB4eZnKQnl-ds_ViV4-76">
          <mxGeometry relative="1" as="geometry" />
        </mxCell>
        <mxCell id="6qjB4eZnKQnl-ds_ViV4-10" value="Permissões" style="whiteSpace=wrap;html=1;align=center;" vertex="1" parent="1">
          <mxGeometry x="70" y="270" width="100" height="40" as="geometry" />
        </mxCell>
        <mxCell id="6qjB4eZnKQnl-ds_ViV4-11" value="Pedido de compra" style="whiteSpace=wrap;html=1;align=center;" vertex="1" parent="1">
          <mxGeometry x="618" y="140" width="100" height="40" as="geometry" />
        </mxCell>
        <mxCell id="6qjB4eZnKQnl-ds_ViV4-12" value="Despesa" style="whiteSpace=wrap;html=1;align=center;" vertex="1" parent="1">
          <mxGeometry x="572" y="-40" width="100" height="40" as="geometry" />
        </mxCell>
        <mxCell id="6qjB4eZnKQnl-ds_ViV4-71" style="edgeStyle=orthogonalEdgeStyle;rounded=0;orthogonalLoop=1;jettySize=auto;html=1;entryX=1;entryY=0.5;entryDx=0;entryDy=0;endArrow=none;startFill=0;" edge="1" parent="1" source="6qjB4eZnKQnl-ds_ViV4-13" target="6qjB4eZnKQnl-ds_ViV4-68">
          <mxGeometry relative="1" as="geometry" />
        </mxCell>
        <mxCell id="6qjB4eZnKQnl-ds_ViV4-13" value="Demonstração de Fluxo de Caixa" style="whiteSpace=wrap;html=1;align=center;" vertex="1" parent="1">
          <mxGeometry x="340" y="-160" width="100" height="40" as="geometry" />
        </mxCell>
        <mxCell id="6qjB4eZnKQnl-ds_ViV4-63" style="edgeStyle=orthogonalEdgeStyle;rounded=0;orthogonalLoop=1;jettySize=auto;html=1;entryX=0;entryY=0.5;entryDx=0;entryDy=0;endArrow=none;startFill=0;" edge="1" parent="1" source="6qjB4eZnKQnl-ds_ViV4-15" target="6qjB4eZnKQnl-ds_ViV4-61">
          <mxGeometry relative="1" as="geometry" />
        </mxCell>
        <mxCell id="6qjB4eZnKQnl-ds_ViV4-15" value="Caixa" style="whiteSpace=wrap;html=1;align=center;" vertex="1" parent="1">
          <mxGeometry x="-290" y="-110" width="100" height="40" as="geometry" />
        </mxCell>
        <mxCell id="6qjB4eZnKQnl-ds_ViV4-18" style="edgeStyle=orthogonalEdgeStyle;rounded=0;orthogonalLoop=1;jettySize=auto;html=1;exitX=1;exitY=0.5;exitDx=0;exitDy=0;strokeColor=default;endArrow=none;startFill=0;" edge="1" parent="1" source="6qjB4eZnKQnl-ds_ViV4-17" target="6qjB4eZnKQnl-ds_ViV4-7">
          <mxGeometry relative="1" as="geometry" />
        </mxCell>
        <mxCell id="6qjB4eZnKQnl-ds_ViV4-17" value="" style="triangle;whiteSpace=wrap;html=1;rotation=270;aspect=fixed;" vertex="1" parent="1">
          <mxGeometry x="200" width="20" height="26.67" as="geometry" />
        </mxCell>
        <mxCell id="6qjB4eZnKQnl-ds_ViV4-56" style="edgeStyle=orthogonalEdgeStyle;rounded=0;orthogonalLoop=1;jettySize=auto;html=1;entryX=0.5;entryY=0;entryDx=0;entryDy=0;endArrow=none;startFill=0;" edge="1" parent="1" source="6qjB4eZnKQnl-ds_ViV4-19" target="6qjB4eZnKQnl-ds_ViV4-55">
          <mxGeometry relative="1" as="geometry">
            <Array as="points">
              <mxPoint x="-60" y="60" />
            </Array>
          </mxGeometry>
        </mxCell>
        <mxCell id="6qjB4eZnKQnl-ds_ViV4-59" style="edgeStyle=orthogonalEdgeStyle;rounded=0;orthogonalLoop=1;jettySize=auto;html=1;entryX=0.5;entryY=1;entryDx=0;entryDy=0;endArrow=none;startFill=0;" edge="1" parent="1" source="6qjB4eZnKQnl-ds_ViV4-19" target="6qjB4eZnKQnl-ds_ViV4-58">
          <mxGeometry relative="1" as="geometry" />
        </mxCell>
        <mxCell id="6qjB4eZnKQnl-ds_ViV4-65" style="edgeStyle=orthogonalEdgeStyle;rounded=0;orthogonalLoop=1;jettySize=auto;html=1;exitX=0;exitY=0.5;exitDx=0;exitDy=0;entryX=1;entryY=0.5;entryDx=0;entryDy=0;endArrow=none;startFill=0;" edge="1" parent="1" source="6qjB4eZnKQnl-ds_ViV4-19" target="6qjB4eZnKQnl-ds_ViV4-64">
          <mxGeometry relative="1" as="geometry" />
        </mxCell>
        <mxCell id="6qjB4eZnKQnl-ds_ViV4-19" value="Atendente" style="whiteSpace=wrap;html=1;align=center;" vertex="1" parent="1">
          <mxGeometry x="-30" y="40" width="99" height="40" as="geometry" />
        </mxCell>
        <mxCell id="6qjB4eZnKQnl-ds_ViV4-20" value="Gestor de negócio" style="whiteSpace=wrap;html=1;align=center;" vertex="1" parent="1">
          <mxGeometry x="70" y="140" width="100" height="40" as="geometry" />
        </mxCell>
        <mxCell id="6qjB4eZnKQnl-ds_ViV4-35" style="edgeStyle=orthogonalEdgeStyle;rounded=0;orthogonalLoop=1;jettySize=auto;html=1;entryX=0;entryY=0.5;entryDx=0;entryDy=0;endArrow=none;startFill=0;" edge="1" parent="1" source="6qjB4eZnKQnl-ds_ViV4-21" target="6qjB4eZnKQnl-ds_ViV4-30">
          <mxGeometry relative="1" as="geometry" />
        </mxCell>
        <mxCell id="6qjB4eZnKQnl-ds_ViV4-21" value="Almoxarife" style="whiteSpace=wrap;html=1;align=center;" vertex="1" parent="1">
          <mxGeometry x="250" y="140" width="100" height="40" as="geometry" />
        </mxCell>
        <mxCell id="6qjB4eZnKQnl-ds_ViV4-69" style="edgeStyle=orthogonalEdgeStyle;rounded=0;orthogonalLoop=1;jettySize=auto;html=1;entryX=0.5;entryY=1;entryDx=0;entryDy=0;endArrow=none;startFill=0;" edge="1" parent="1" source="6qjB4eZnKQnl-ds_ViV4-22" target="6qjB4eZnKQnl-ds_ViV4-67">
          <mxGeometry relative="1" as="geometry" />
        </mxCell>
        <mxCell id="6qjB4eZnKQnl-ds_ViV4-74" style="edgeStyle=orthogonalEdgeStyle;rounded=0;orthogonalLoop=1;jettySize=auto;html=1;exitX=0.5;exitY=0;exitDx=0;exitDy=0;entryX=0;entryY=0.5;entryDx=0;entryDy=0;endArrow=none;startFill=0;" edge="1" parent="1" source="6qjB4eZnKQnl-ds_ViV4-22" target="6qjB4eZnKQnl-ds_ViV4-73">
          <mxGeometry relative="1" as="geometry" />
        </mxCell>
        <mxCell id="6qjB4eZnKQnl-ds_ViV4-22" value="Gestor financeiro" style="whiteSpace=wrap;html=1;align=center;" vertex="1" parent="1">
          <mxGeometry x="340" y="40" width="100" height="40" as="geometry" />
        </mxCell>
        <mxCell id="6qjB4eZnKQnl-ds_ViV4-26" value="" style="endArrow=none;html=1;rounded=0;entryX=0.008;entryY=0.017;entryDx=0;entryDy=0;entryPerimeter=0;exitX=1.003;exitY=0.48;exitDx=0;exitDy=0;exitPerimeter=0;" edge="1" parent="1" source="6qjB4eZnKQnl-ds_ViV4-19" target="6qjB4eZnKQnl-ds_ViV4-17">
          <mxGeometry width="50" height="50" relative="1" as="geometry">
            <mxPoint x="147" y="73.67" as="sourcePoint" />
            <mxPoint x="197" y="23.67" as="targetPoint" />
          </mxGeometry>
        </mxCell>
        <mxCell id="6qjB4eZnKQnl-ds_ViV4-27" value="" style="endArrow=none;html=1;rounded=0;entryX=0;entryY=0.25;entryDx=0;entryDy=0;exitX=0.5;exitY=0;exitDx=0;exitDy=0;" edge="1" parent="1" source="6qjB4eZnKQnl-ds_ViV4-20" target="6qjB4eZnKQnl-ds_ViV4-17">
          <mxGeometry width="50" height="50" relative="1" as="geometry">
            <mxPoint x="160" y="79" as="sourcePoint" />
            <mxPoint x="207" y="33" as="targetPoint" />
          </mxGeometry>
        </mxCell>
        <mxCell id="6qjB4eZnKQnl-ds_ViV4-28" value="" style="endArrow=none;html=1;rounded=0;entryX=0;entryY=0.75;entryDx=0;entryDy=0;exitX=0.5;exitY=0;exitDx=0;exitDy=0;" edge="1" parent="1" source="6qjB4eZnKQnl-ds_ViV4-21" target="6qjB4eZnKQnl-ds_ViV4-17">
          <mxGeometry width="50" height="50" relative="1" as="geometry">
            <mxPoint x="180" y="120" as="sourcePoint" />
            <mxPoint x="213" y="33" as="targetPoint" />
          </mxGeometry>
        </mxCell>
        <mxCell id="6qjB4eZnKQnl-ds_ViV4-29" value="" style="endArrow=none;html=1;rounded=0;entryX=0.023;entryY=0.993;entryDx=0;entryDy=0;exitX=0;exitY=0.5;exitDx=0;exitDy=0;entryPerimeter=0;" edge="1" parent="1" source="6qjB4eZnKQnl-ds_ViV4-22" target="6qjB4eZnKQnl-ds_ViV4-17">
          <mxGeometry width="50" height="50" relative="1" as="geometry">
            <mxPoint x="300" y="120" as="sourcePoint" />
            <mxPoint x="227" y="33" as="targetPoint" />
          </mxGeometry>
        </mxCell>
        <mxCell id="6qjB4eZnKQnl-ds_ViV4-34" style="edgeStyle=orthogonalEdgeStyle;rounded=0;orthogonalLoop=1;jettySize=auto;html=1;entryX=0;entryY=0.5;entryDx=0;entryDy=0;endArrow=none;startFill=0;" edge="1" parent="1" source="6qjB4eZnKQnl-ds_ViV4-30" target="6qjB4eZnKQnl-ds_ViV4-11">
          <mxGeometry relative="1" as="geometry" />
        </mxCell>
        <mxCell id="6qjB4eZnKQnl-ds_ViV4-30" value="emite" style="shape=rhombus;perimeter=rhombusPerimeter;whiteSpace=wrap;html=1;align=center;aspect=fixed;fontSize=11;" vertex="1" parent="1">
          <mxGeometry x="465" y="145" width="60" height="30" as="geometry" />
        </mxCell>
        <mxCell id="6qjB4eZnKQnl-ds_ViV4-32" style="edgeStyle=orthogonalEdgeStyle;rounded=0;orthogonalLoop=1;jettySize=auto;html=1;entryX=1;entryY=0.5;entryDx=0;entryDy=0;endArrow=none;startFill=0;" edge="1" parent="1" source="6qjB4eZnKQnl-ds_ViV4-31" target="6qjB4eZnKQnl-ds_ViV4-22">
          <mxGeometry relative="1" as="geometry" />
        </mxCell>
        <mxCell id="6qjB4eZnKQnl-ds_ViV4-37" value="(0, N)" style="edgeLabel;html=1;align=center;verticalAlign=middle;resizable=0;points=[];" vertex="1" connectable="0" parent="6qjB4eZnKQnl-ds_ViV4-32">
          <mxGeometry x="0.773" relative="1" as="geometry">
            <mxPoint y="-10" as="offset" />
          </mxGeometry>
        </mxCell>
        <mxCell id="6qjB4eZnKQnl-ds_ViV4-33" style="edgeStyle=orthogonalEdgeStyle;rounded=0;orthogonalLoop=1;jettySize=auto;html=1;endArrow=none;startFill=0;" edge="1" parent="1" source="6qjB4eZnKQnl-ds_ViV4-31" target="6qjB4eZnKQnl-ds_ViV4-11">
          <mxGeometry relative="1" as="geometry" />
        </mxCell>
        <mxCell id="6qjB4eZnKQnl-ds_ViV4-36" value="(0, N)" style="edgeLabel;html=1;align=center;verticalAlign=middle;resizable=0;points=[];" vertex="1" connectable="0" parent="6qjB4eZnKQnl-ds_ViV4-33">
          <mxGeometry x="0.408" y="-1" relative="1" as="geometry">
            <mxPoint x="23" y="5" as="offset" />
          </mxGeometry>
        </mxCell>
        <mxCell id="6qjB4eZnKQnl-ds_ViV4-31" value="gere" style="shape=rhombus;perimeter=rhombusPerimeter;whiteSpace=wrap;html=1;align=center;fontSize=11;" vertex="1" parent="1">
          <mxGeometry x="638" y="45" width="60" height="30" as="geometry" />
        </mxCell>
        <mxCell id="6qjB4eZnKQnl-ds_ViV4-39" value="(0, N)" style="edgeLabel;html=1;align=center;verticalAlign=middle;resizable=0;points=[];" vertex="1" connectable="0" parent="1">
          <mxGeometry x="690" y="140.00196721311468" as="geometry">
            <mxPoint x="-94" y="-1" as="offset" />
          </mxGeometry>
        </mxCell>
        <mxCell id="6qjB4eZnKQnl-ds_ViV4-40" value="(1, N)" style="edgeLabel;html=1;align=center;verticalAlign=middle;resizable=0;points=[];" vertex="1" connectable="0" parent="1">
          <mxGeometry x="463" y="140.00196721311468" as="geometry">
            <mxPoint x="-94" y="-1" as="offset" />
          </mxGeometry>
        </mxCell>
        <mxCell id="6qjB4eZnKQnl-ds_ViV4-42" style="edgeStyle=orthogonalEdgeStyle;rounded=0;orthogonalLoop=1;jettySize=auto;html=1;endArrow=none;startFill=0;" edge="1" parent="1" source="6qjB4eZnKQnl-ds_ViV4-41" target="6qjB4eZnKQnl-ds_ViV4-21">
          <mxGeometry relative="1" as="geometry" />
        </mxCell>
        <mxCell id="6qjB4eZnKQnl-ds_ViV4-43" style="edgeStyle=orthogonalEdgeStyle;rounded=0;orthogonalLoop=1;jettySize=auto;html=1;endArrow=none;startFill=0;" edge="1" parent="1" source="6qjB4eZnKQnl-ds_ViV4-41" target="6qjB4eZnKQnl-ds_ViV4-5">
          <mxGeometry relative="1" as="geometry" />
        </mxCell>
        <mxCell id="6qjB4eZnKQnl-ds_ViV4-44" value="(1,1)" style="edgeLabel;html=1;align=center;verticalAlign=middle;resizable=0;points=[];" vertex="1" connectable="0" parent="6qjB4eZnKQnl-ds_ViV4-43">
          <mxGeometry x="-0.1654" y="-1" relative="1" as="geometry">
            <mxPoint x="76" y="22" as="offset" />
          </mxGeometry>
        </mxCell>
        <mxCell id="6qjB4eZnKQnl-ds_ViV4-41" value="mantém" style="shape=rhombus;perimeter=rhombusPerimeter;whiteSpace=wrap;html=1;align=center;aspect=fixed;fontSize=11;" vertex="1" parent="1">
          <mxGeometry x="270" y="220" width="60" height="30" as="geometry" />
        </mxCell>
        <mxCell id="6qjB4eZnKQnl-ds_ViV4-45" value="(0,N)" style="edgeLabel;html=1;align=center;verticalAlign=middle;resizable=0;points=[];" vertex="1" connectable="0" parent="1">
          <mxGeometry x="323" y="331.0030769230771" as="geometry">
            <mxPoint x="14" y="-142" as="offset" />
          </mxGeometry>
        </mxCell>
        <mxCell id="6qjB4eZnKQnl-ds_ViV4-48" style="edgeStyle=orthogonalEdgeStyle;rounded=0;orthogonalLoop=1;jettySize=auto;html=1;endArrow=none;startFill=0;" edge="1" parent="1" source="6qjB4eZnKQnl-ds_ViV4-47" target="6qjB4eZnKQnl-ds_ViV4-4">
          <mxGeometry relative="1" as="geometry" />
        </mxCell>
        <mxCell id="6qjB4eZnKQnl-ds_ViV4-49" style="edgeStyle=orthogonalEdgeStyle;rounded=0;orthogonalLoop=1;jettySize=auto;html=1;endArrow=none;startFill=0;" edge="1" parent="1" source="6qjB4eZnKQnl-ds_ViV4-47" target="6qjB4eZnKQnl-ds_ViV4-5">
          <mxGeometry relative="1" as="geometry" />
        </mxCell>
        <mxCell id="6qjB4eZnKQnl-ds_ViV4-47" value="está" style="shape=rhombus;perimeter=rhombusPerimeter;whiteSpace=wrap;html=1;align=center;aspect=fixed;fontSize=11;" vertex="1" parent="1">
          <mxGeometry x="180" y="331" width="60" height="30" as="geometry" />
        </mxCell>
        <mxCell id="6qjB4eZnKQnl-ds_ViV4-50" value="contém" style="shape=rhombus;perimeter=rhombusPerimeter;whiteSpace=wrap;html=1;align=center;aspect=fixed;fontSize=11;" vertex="1" parent="1">
          <mxGeometry x="-89" y="331" width="60" height="30" as="geometry" />
        </mxCell>
        <mxCell id="6qjB4eZnKQnl-ds_ViV4-55" value="visualiza" style="shape=rhombus;perimeter=rhombusPerimeter;whiteSpace=wrap;html=1;align=center;aspect=fixed;fontSize=11;" vertex="1" parent="1">
          <mxGeometry x="-91" y="109" width="60" height="30" as="geometry" />
        </mxCell>
        <mxCell id="6qjB4eZnKQnl-ds_ViV4-57" style="edgeStyle=orthogonalEdgeStyle;rounded=0;orthogonalLoop=1;jettySize=auto;html=1;entryX=0.48;entryY=-0.001;entryDx=0;entryDy=0;entryPerimeter=0;endArrow=none;startFill=0;" edge="1" parent="1" source="6qjB4eZnKQnl-ds_ViV4-55" target="6qjB4eZnKQnl-ds_ViV4-3">
          <mxGeometry relative="1" as="geometry" />
        </mxCell>
        <mxCell id="6qjB4eZnKQnl-ds_ViV4-60" style="edgeStyle=orthogonalEdgeStyle;rounded=0;orthogonalLoop=1;jettySize=auto;html=1;entryX=0.5;entryY=1;entryDx=0;entryDy=0;endArrow=none;startFill=0;" edge="1" parent="1" source="6qjB4eZnKQnl-ds_ViV4-58" target="6qjB4eZnKQnl-ds_ViV4-6">
          <mxGeometry relative="1" as="geometry" />
        </mxCell>
        <mxCell id="6qjB4eZnKQnl-ds_ViV4-58" value="efetua" style="shape=rhombus;perimeter=rhombusPerimeter;whiteSpace=wrap;html=1;align=center;aspect=fixed;fontSize=11;" vertex="1" parent="1">
          <mxGeometry x="-10" y="-30" width="60" height="30" as="geometry" />
        </mxCell>
        <mxCell id="6qjB4eZnKQnl-ds_ViV4-61" value="[verbo]" style="shape=rhombus;perimeter=rhombusPerimeter;whiteSpace=wrap;html=1;align=center;aspect=fixed;fontSize=11;" vertex="1" parent="1">
          <mxGeometry x="-140" y="-105" width="60" height="30" as="geometry" />
        </mxCell>
        <mxCell id="6qjB4eZnKQnl-ds_ViV4-66" style="edgeStyle=orthogonalEdgeStyle;rounded=0;orthogonalLoop=1;jettySize=auto;html=1;entryX=0.5;entryY=1;entryDx=0;entryDy=0;endArrow=none;startFill=0;" edge="1" parent="1" source="6qjB4eZnKQnl-ds_ViV4-64" target="6qjB4eZnKQnl-ds_ViV4-15">
          <mxGeometry relative="1" as="geometry">
            <Array as="points">
              <mxPoint x="-240" y="60" />
            </Array>
          </mxGeometry>
        </mxCell>
        <mxCell id="6qjB4eZnKQnl-ds_ViV4-64" value="visualiza" style="shape=rhombus;perimeter=rhombusPerimeter;whiteSpace=wrap;html=1;align=center;aspect=fixed;fontSize=11;" vertex="1" parent="1">
          <mxGeometry x="-200" y="45" width="60" height="30" as="geometry" />
        </mxCell>
        <mxCell id="6qjB4eZnKQnl-ds_ViV4-70" style="edgeStyle=orthogonalEdgeStyle;rounded=0;orthogonalLoop=1;jettySize=auto;html=1;endArrow=none;startFill=0;" edge="1" parent="1" source="6qjB4eZnKQnl-ds_ViV4-67" target="6qjB4eZnKQnl-ds_ViV4-13">
          <mxGeometry relative="1" as="geometry" />
        </mxCell>
        <mxCell id="6qjB4eZnKQnl-ds_ViV4-67" value="efetua" style="shape=rhombus;perimeter=rhombusPerimeter;whiteSpace=wrap;html=1;align=center;aspect=fixed;fontSize=11;" vertex="1" parent="1">
          <mxGeometry x="360" y="-82" width="60" height="30" as="geometry" />
        </mxCell>
        <mxCell id="6qjB4eZnKQnl-ds_ViV4-72" style="edgeStyle=orthogonalEdgeStyle;rounded=0;orthogonalLoop=1;jettySize=auto;html=1;endArrow=none;startFill=0;" edge="1" parent="1" source="6qjB4eZnKQnl-ds_ViV4-68" target="6qjB4eZnKQnl-ds_ViV4-6">
          <mxGeometry relative="1" as="geometry" />
        </mxCell>
        <mxCell id="6qjB4eZnKQnl-ds_ViV4-68" value="efetua" style="shape=rhombus;perimeter=rhombusPerimeter;whiteSpace=wrap;html=1;align=center;aspect=fixed;fontSize=11;" vertex="1" parent="1">
          <mxGeometry x="210" y="-155" width="60" height="30" as="geometry" />
        </mxCell>
        <mxCell id="6qjB4eZnKQnl-ds_ViV4-75" style="edgeStyle=orthogonalEdgeStyle;rounded=0;orthogonalLoop=1;jettySize=auto;html=1;endArrow=none;startFill=0;" edge="1" parent="1" source="6qjB4eZnKQnl-ds_ViV4-73" target="6qjB4eZnKQnl-ds_ViV4-12">
          <mxGeometry relative="1" as="geometry" />
        </mxCell>
        <mxCell id="6qjB4eZnKQnl-ds_ViV4-73" value="maneja" style="shape=rhombus;perimeter=rhombusPerimeter;whiteSpace=wrap;html=1;align=center;aspect=fixed;fontSize=11;" vertex="1" parent="1">
          <mxGeometry x="459" y="-35" width="60" height="30" as="geometry" />
        </mxCell>
        <mxCell id="6qjB4eZnKQnl-ds_ViV4-77" style="edgeStyle=orthogonalEdgeStyle;rounded=0;orthogonalLoop=1;jettySize=auto;html=1;exitX=0.5;exitY=0;exitDx=0;exitDy=0;entryX=0.5;entryY=1;entryDx=0;entryDy=0;endArrow=none;startFill=0;" edge="1" parent="1" source="6qjB4eZnKQnl-ds_ViV4-76" target="6qjB4eZnKQnl-ds_ViV4-20">
          <mxGeometry relative="1" as="geometry" />
        </mxCell>
        <mxCell id="6qjB4eZnKQnl-ds_ViV4-76" value="mantém" style="shape=rhombus;perimeter=rhombusPerimeter;whiteSpace=wrap;html=1;align=center;aspect=fixed;fontSize=11;" vertex="1" parent="1">
          <mxGeometry x="90" y="207" width="60" height="30" as="geometry" />
        </mxCell>
      </root>
    </mxGraphModel>
  </diagram>
</mxfile>
